<?xml version="1.0" encoding="utf-8"?>
<!-- Generator: Adobe Illustrator 25.0.0, SVG Export Plug-In . SVG Version: 6.00 Build 0)  -->
<svg version="1.1" id="Layer_1" xmlns="http://www.w3.org/2000/svg" xmlns:xlink="http://www.w3.org/1999/xlink" x="0px" y="0px"
	 viewBox="0 0 80.65 86.21" style="enable-background:new 0 0 80.65 86.21;" xml:space="preserve">
<style type="text/css">
	.st0{fill:#FFFFFF;}
</style>
<g>
	<g>
		<path class="st0" d="M34.58,86.21c0-1.05,0.02-2.09-0.01-3.12c-0.02-0.72-0.06-1.44-0.18-2.14c-0.25-1.46-0.95-2.12-2.44-2.12
			c-1.75,0.01-3.51,0.1-5.25,0.3c-3.74,0.45-7.45,1.22-11.24,1.1c-3.45-0.1-6.72-0.85-9.56-2.95c-3.03-2.24-4.69-5.34-5.39-8.96
			c-0.3-1.56-0.48-3.17-0.48-4.75C-0.01,42.57,0,21.56,0,0.55C0,0.38,0,0.2,0,0c26.89,0,53.74,0,80.64,0c0,0.22,0,0.44,0,0.65
			c0,20.91,0,41.81,0,62.72c0,2.74-0.35,5.41-1.38,7.97c-1.97,4.88-5.69,7.59-10.78,8.56c-3.14,0.59-6.28,0.33-9.42-0.05
			c-3.09-0.37-6.18-0.72-9.27-1.06c-0.37-0.04-0.76,0-1.14,0.02c-1.45,0.1-2.15,0.69-2.4,2.11c-0.12,0.7-0.17,1.43-0.19,2.14
			c-0.03,1.04-0.01,2.07-0.01,3.15C42.23,86.21,38.43,86.21,34.58,86.21z M42.54,82.75c0.08-0.79,0.12-1.53,0.25-2.25
			c0.45-2.56,1.79-4.38,4.43-4.97c0.79-0.18,1.63-0.29,2.43-0.21c2.94,0.26,5.87,0.58,8.8,0.94c2.99,0.36,5.98,0.76,9,0.29
			c3.89-0.61,6.9-2.48,8.44-6.21c0.55-1.35,0.89-2.81,1.1-4.26c0.22-1.52,0.17-3.09,0.23-4.64c-1.78,0-3.44,0-5.19,0
			c0,0.59,0.03,1.17-0.01,1.74c-0.26,3.75-3.35,6.88-7.08,7.14c-2.71,0.19-5.37-0.25-8.03-0.67c-3-0.47-6.02-0.79-9.06-0.42
			c-2.71,0.33-5.02,1.42-6.49,3.86c-0.43,0.72-0.73,1.52-1.08,2.27c-0.04-0.11-0.09-0.26-0.14-0.41c-0.87-2.62-2.61-4.37-5.23-5.25
			c-2.33-0.77-4.73-0.74-7.12-0.51c-2.86,0.27-5.69,0.75-8.55,1.04c-1.4,0.14-2.86,0.22-4.23-0.01c-3.84-0.66-6.37-3.82-6.44-7.78
			c-0.01-0.33,0-0.66,0-0.99c-1.74,0-3.39,0-5.08,0c-0.08,2.98,0,5.92,1.16,8.71c1.18,2.86,3.22,4.79,6.14,5.8
			c1.76,0.61,3.58,0.91,5.41,0.79c2.84-0.2,5.68-0.53,8.51-0.87c2.52-0.31,5.02-0.69,7.57-0.53c2.84,0.18,4.83,1.84,5.45,4.61
			c0.2,0.91,0.27,1.85,0.4,2.8C39.58,82.75,41.05,82.75,42.54,82.75z M40.32,71.48c2.04-2.63,4.81-3.72,7.96-4.05
			c3.05-0.32,6.05,0.13,9.06,0.52c2.27,0.29,4.56,0.62,6.84,0.64c3.57,0.04,6.15-2.69,6.15-6.26c0-17.17,0-34.35,0-51.52
			c0-0.17-0.02-0.34-0.03-0.5c-20.02,0-40,0-60,0c0,0.16,0,0.28,0,0.4c0,17.23,0,34.47,0,51.7c0,0.3,0.01,0.6,0.06,0.89
			c0.54,3.25,2.93,5.37,6.29,5.29c2.22-0.05,4.45-0.37,6.66-0.65c2.97-0.38,5.93-0.83,8.94-0.53
			C35.46,67.74,38.26,68.83,40.32,71.48z M77.15,3.48c-24.59,0-49.12,0-73.64,0c0,3.72,0,7.4,0,11.09c1.69,0,3.34,0,5.06,0
			c0-2,0-3.99,0-5.98c21.2,0,42.33,0,63.51,0c0,2.02,0,3.99,0,5.97c1.71,0,3.38,0,5.06,0C77.15,10.85,77.15,7.18,77.15,3.48z
			 M3.5,19.18c0,12.55,0,25.06,0,37.59c1.69,0,3.35,0,5.04,0c0-12.54,0-25.05,0-37.59C6.86,19.18,5.21,19.18,3.5,19.18z
			 M77.13,56.78c0-12.54,0-25.07,0-37.59c-1.69,0-3.34,0-5.02,0c0,12.54,0,25.05,0,37.59C73.8,56.78,75.46,56.78,77.13,56.78z"/>
		<path class="st0" d="M39.54,11.71c0,9.29,0,18.56,0,27.86c-9.26,0-18.5,0-27.79,0c0-9.28,0-18.55,0-27.86
			C20.97,11.71,30.23,11.71,39.54,11.71z M31.31,29.12c-1.09,1.2-2.4,1.96-4.06,2.02c-1.65,0.06-3.12-0.38-4.3-1.58
			c-1.9-1.92-2.04-5.4-0.3-7.53c0.9-1.11,2.09-1.69,3.49-1.88c2.07-0.27,3.78,0.44,5.18,1.95c0.87-0.8,1.68-1.56,2.53-2.34
			c-0.68-0.82-1.46-1.46-2.36-1.94c-2.08-1.1-4.29-1.34-6.57-0.95c-3.28,0.57-5.74,2.32-6.9,5.5c-1.18,3.22-0.76,6.31,1.46,9
			c2.51,3.03,7.31,4.04,11.19,2.43c1.25-0.52,2.32-1.27,3.18-2.36C32.98,30.66,32.16,29.9,31.31,29.12z"/>
		<path class="st0" d="M68.95,41.11c0,0.26,0,0.49,0,0.72c0,6.71-0.06,13.42,0.03,20.13c0.04,2.68-1.61,5.56-5.58,5.28
			c-2.36-0.17-4.72-0.51-7.07-0.83c-3.35-0.45-6.7-0.76-10.06-0.07c-1.86,0.38-3.56,1.13-5.13,2.34c0-9.22,0-18.38,0-27.57
			C50.38,41.11,59.63,41.11,68.95,41.11z M47.86,60.77c0.12,0.1,0.21,0.18,0.31,0.24c0.24,0.15,0.47,0.3,0.72,0.42
			c2.34,1.16,4.82,1.51,7.39,1.27c1.55-0.14,2.99-0.61,4.23-1.63c2.18-1.79,2.61-6.04-0.95-7.63c-0.81-0.36-1.68-0.61-2.54-0.87
			c-1.22-0.36-2.47-0.64-3.68-1.03c-0.67-0.22-1.22-0.67-1.19-1.47c0.03-0.84,0.53-1.38,1.3-1.61c0.59-0.17,1.21-0.3,1.81-0.32
			c1.76-0.06,3.37,0.49,4.94,1.34c0.41-1.02,0.81-2,1.23-3.02c-0.25-0.14-0.45-0.26-0.67-0.36c-1.74-0.86-3.6-1.18-5.51-1.15
			c-1.84,0.03-3.6,0.36-5.14,1.48c-2.49,1.79-2.92,6.37,0.76,7.96c0.89,0.38,1.84,0.65,2.77,0.93c1.14,0.35,2.31,0.61,3.44,0.99
			c0.67,0.23,1.19,0.71,1.13,1.51c-0.05,0.8-0.58,1.29-1.3,1.45c-0.79,0.18-1.61,0.29-2.42,0.28c-1.92-0.04-3.67-0.67-5.3-1.75
			C48.74,58.82,48.31,59.79,47.86,60.77z"/>
		<path class="st0" d="M68.95,13.84c-0.14,0.1-0.3,0.19-0.42,0.32c-8.4,8.4-16.8,16.8-25.2,25.21c-0.07,0.07-0.13,0.15-0.19,0.23
			c-0.65,0-1.31,0-2.04,0c0-0.2,0-0.39,0-0.58c0.15-0.13,0.31-0.25,0.45-0.39C50.36,29.81,59.18,20.99,68,12.16
			c0.15-0.15,0.28-0.33,0.42-0.49c0.15,0.01,0.31,0.01,0.53,0.03C68.95,12.43,68.95,13.14,68.95,13.84z"/>
		<path class="st0" d="M39.55,43.22c-0.15,0.13-0.31,0.24-0.45,0.38c-7.85,7.85-15.69,15.7-23.54,23.54
			c-0.61-0.25-1.21-0.5-1.82-0.75c0.16-0.15,0.33-0.29,0.48-0.44c8.1-8.1,16.2-16.2,24.3-24.3c0.17-0.17,0.31-0.36,0.46-0.54
			c0.17,0,0.35,0,0.57,0C39.55,41.81,39.55,42.51,39.55,43.22z"/>
		<path class="st0" d="M41.09,31.48c0.14-0.11,0.28-0.22,0.41-0.34c6.34-6.34,12.68-12.68,19.02-19.02c0.14-0.14,0.25-0.3,0.37-0.46
			c0.84,0.01,1.67,0.01,2.51,0.02c-0.11,0.14-0.21,0.29-0.33,0.41c-7.2,7.2-14.4,14.4-21.6,21.6c-0.11,0.11-0.24,0.21-0.36,0.31
			C41.1,33.17,41.1,32.33,41.09,31.48z"/>
		<path class="st0" d="M11.7,60.86c0.12-0.09,0.26-0.17,0.37-0.28c6.42-6.42,12.84-12.83,19.25-19.25c0.07-0.07,0.13-0.15,0.19-0.23
			c0.84,0,1.68,0,2.51,0c-0.16,0.18-0.32,0.36-0.48,0.53c-7.08,7.08-14.16,14.17-21.24,21.25c-0.17,0.17-0.35,0.32-0.53,0.48
			C11.75,62.53,11.72,61.69,11.7,60.86z"/>
		<path class="st0" d="M68.95,21.3c-0.15,0.13-0.31,0.25-0.45,0.38c-5.82,5.82-11.64,11.64-17.45,17.46
			c-0.14,0.14-0.25,0.3-0.37,0.46c-0.84,0-1.67,0-2.51,0c0.12-0.15,0.23-0.32,0.36-0.46c6.66-6.67,13.33-13.34,20-20
			c0.13-0.13,0.27-0.23,0.4-0.35C68.93,19.62,68.94,20.46,68.95,21.3z"/>
		<path class="st0" d="M39.55,50.75c-0.12,0.1-0.26,0.18-0.37,0.29c-5.04,5.03-10.07,10.07-15.1,15.11c-0.1,0.1-0.17,0.21-0.26,0.32
			c-0.95,0.14-1.9,0.29-2.85,0.43c0.06-0.13,0.09-0.29,0.18-0.38c6.08-6.09,12.16-12.17,18.25-18.25c0.04-0.04,0.09-0.07,0.14-0.11
			C39.54,49.02,39.55,49.88,39.55,50.75z"/>
		<path class="st0" d="M41.09,23.95c0.14-0.11,0.29-0.21,0.41-0.34c3.83-3.83,7.66-7.66,11.49-11.49c0.14-0.14,0.24-0.31,0.36-0.46
			c0.83,0.01,1.67,0.01,2.5,0.02c-0.09,0.13-0.17,0.27-0.28,0.38c-4.72,4.72-9.43,9.44-14.15,14.16c-0.1,0.1-0.21,0.17-0.32,0.26
			C41.1,25.64,41.1,24.8,41.09,23.95z"/>
		<path class="st0" d="M11.69,53.32c0.13-0.09,0.27-0.16,0.38-0.27c3.91-3.9,7.82-7.81,11.72-11.72c0.07-0.07,0.12-0.15,0.19-0.23
			c0.84,0,1.67,0,2.51,0c-0.14,0.16-0.28,0.34-0.43,0.49c-4.61,4.62-9.22,9.23-13.84,13.84c-0.15,0.15-0.34,0.26-0.51,0.4
			C11.71,54.99,11.7,54.16,11.69,53.32z"/>
		<path class="st0" d="M68.95,28.84c-0.14,0.11-0.29,0.21-0.41,0.33c-3.34,3.34-6.67,6.67-10.01,10.01
			c-0.12,0.12-0.22,0.28-0.33,0.42c-0.83,0-1.67,0-2.5,0c0.12-0.16,0.22-0.33,0.36-0.47c4.15-4.16,8.31-8.31,12.47-12.47
			c0.12-0.12,0.27-0.23,0.41-0.34C68.93,27.16,68.94,28,68.95,28.84z"/>
		<path class="st0" d="M39.55,58.21c-0.22,0.2-0.45,0.39-0.66,0.6c-2.38,2.39-4.76,4.78-7.13,7.16c-0.81-0.01-1.61-0.02-2.42-0.03
			c0.09-0.13,0.17-0.27,0.28-0.38c3.24-3.25,6.49-6.49,9.73-9.74c0.06-0.06,0.13-0.09,0.19-0.14
			C39.55,56.53,39.55,57.37,39.55,58.21z"/>
		<path class="st0" d="M48.41,11.69c-0.71,0.73-1.41,1.47-2.13,2.18c-1.72,1.72-3.45,3.43-5.18,5.14c0-0.84-0.01-1.68-0.01-2.52
			c0.63-0.61,1.26-1.21,1.88-1.83c0.98-0.99,1.95-1.99,2.92-2.99C46.73,11.68,47.57,11.68,48.41,11.69z"/>
		<path class="st0" d="M18.96,41.09c-0.08,0.11-0.14,0.24-0.24,0.34c-2.27,2.27-4.54,4.55-6.81,6.82c-0.06,0.06-0.13,0.09-0.19,0.14
			c-0.01-0.84-0.01-1.68-0.02-2.52c1.16-1.14,2.33-2.27,3.49-3.42c0.44-0.43,0.84-0.89,1.26-1.34C17.29,41.1,18.12,41.1,18.96,41.09
			z"/>
		<path class="st0" d="M63.24,39.6c0.07-0.12,0.12-0.25,0.22-0.34c1.74-1.75,3.48-3.49,5.23-5.23c0.07-0.07,0.16-0.1,0.25-0.15
			c0.01,0.84,0.01,1.68,0.02,2.51c-1.09,1.07-2.19,2.14-3.28,3.21C64.86,39.6,64.05,39.6,63.24,39.6z"/>
		<path class="st0" d="M36,66.74c1.18-1.17,2.37-2.35,3.55-3.52c0,0.84,0.01,1.68,0.01,2.53c-0.63,0.58-1.26,1.16-1.9,1.73
			C37.1,67.23,36.55,66.99,36,66.74z"/>
	</g>
</g>
</svg>
